<svg width="118" height="118" viewBox="0 0 118 118" fill="none" xmlns="http://www.w3.org/2000/svg">
<path d="M61.398 25.0012C63.2502 24.9672 65.0048 25.6438 66.3148 26.9392C67.6316 28.1938 68.3355 29.9311 68.3355 31.7671C68.3355 35.507 71.4001 38.5364 75.2089 38.5364C76.3842 38.5364 77.5629 38.193 78.6103 37.615C81.8736 35.8436 85.9485 36.969 87.8007 40.1309L90.0941 44.1089C90.6666 45.1289 91 46.2848 91 47.4748C91 49.8888 89.69 52.1361 87.5683 53.3227C86.521 53.9007 85.6454 54.7847 85.0426 55.8081C83.2543 59.0006 84.369 63.0431 87.5683 64.8859C90.7979 66.7525 91.9093 70.8358 90.0941 74.0623L87.8007 77.9077C86.5883 80.0122 84.332 81.3076 81.9072 81.3076C80.6949 81.3076 79.4825 80.9982 78.4756 80.3862C77.3945 79.8082 76.2192 79.4682 75.0372 79.4682C73.2186 79.4682 71.4674 80.1856 70.1911 81.4742C68.8743 82.7356 68.1671 84.4662 68.1671 86.2681C68.1671 89.9741 65.1058 93 61.297 93H56.6866C54.8647 93 53.1472 92.252 51.9011 90.994C50.6214 89.7021 49.9512 88.0021 49.9512 86.2341C49.9512 82.4942 46.9169 79.4682 43.1148 79.4682C41.8654 79.4682 40.653 79.8082 39.6091 80.4576C38.0262 81.3382 36.1403 81.5762 34.3891 81.1342C32.6379 80.6582 31.1225 79.5022 30.2132 77.9723L28.0613 74.1303C27.0476 72.5358 26.7445 70.6284 27.2193 68.8264C27.6874 67.0245 28.9032 65.4945 30.55 64.5765C31.5973 63.9985 32.4696 63.1485 33.0757 62.0946C34.8303 58.8986 33.7156 54.8867 30.55 53.0167C27.3507 51.1808 26.2393 47.1348 28.0613 43.9389L30.2132 40.1309C31.1225 38.5364 32.6379 37.377 34.4228 36.901C36.2111 36.425 38.0936 36.6936 39.6764 37.615C40.7541 38.193 41.9328 38.499 43.1148 38.499C44.9334 38.499 46.6812 37.785 47.9609 36.527C49.2407 35.269 49.9512 33.5351 49.9512 31.7671C49.9512 28.0272 53.0125 25.0012 56.818 25.0012H61.398ZM62.7485 50.4362C59.2124 48.9708 55.1341 49.7528 52.4063 52.4387C49.7121 55.0907 48.8702 59.1366 50.352 62.6079C51.8035 66.1065 55.2351 68.3844 59.0743 68.3844H59.1114C61.6371 68.4184 63.9945 67.4359 65.776 65.6645C67.5609 63.9305 68.5712 61.5506 68.5712 59.0686C68.6049 55.2947 66.2812 51.8607 62.7485 50.4362Z" fill="url(#paint0_linear_113_1893)"/>
<g clip-path="url(#clip0_113_1893)">
<path d="M58.6706 0.785495C43.0263 0.97745 28.3658 7.23997 17.4244 18.4213C9.60222 26.4594 4.25148 36.4651 1.97202 47.3825C-0.235457 58.012 0.508367 69.0254 4.1795 79.223C4.49143 80.1108 5.33123 80.6626 6.21902 80.6626C6.45896 80.6626 6.7229 80.6146 6.96284 80.5427C8.09058 80.1348 8.69044 78.8871 8.28253 77.7593C1.2042 58.036 5.90709 36.4651 20.5436 21.4686C30.6693 11.1031 44.2261 5.32042 58.7186 5.15246C73.2112 4.9845 86.888 10.4792 97.2535 20.6048L97.5895 20.9167L91.039 20.9887C89.8393 21.0127 88.8795 21.9965 88.8795 23.1962C88.9035 24.3959 89.8633 25.3557 91.063 25.3557H91.087L102.892 25.2117C104.092 25.1877 105.052 24.204 105.052 23.0043L104.908 11.199C104.884 9.99932 103.924 9.03955 102.724 9.03955H102.7C101.501 9.06354 100.541 10.0473 100.541 11.247L100.613 17.7975L100.277 17.4856C89.1195 6.54414 74.315 0.617535 58.6706 0.785495Z" fill="#4C565F"/>
<path d="M13.6572 95.7791L13.8011 107.584C13.8251 108.784 14.7849 109.744 15.9846 109.744H16.0086C17.2083 109.72 18.1681 108.736 18.1681 107.536L18.0961 100.986L18.4321 101.298C29.8054 112.431 44.6099 117.974 59.3904 117.95C74.6268 117.95 89.8392 112.071 101.308 100.338C109.155 92.3239 114.481 82.3183 116.761 71.3768C118.968 60.7473 118.225 49.7339 114.553 39.5364C114.145 38.4086 112.898 37.8088 111.77 38.2167C110.642 38.6246 110.042 39.8723 110.45 41C117.529 60.7233 112.826 82.2943 98.1892 97.2907C77.2902 118.694 42.8583 119.078 21.4793 98.1785L21.1434 97.8666L27.6939 97.7946C28.8936 97.7706 29.8534 96.7868 29.8534 95.5871C29.8294 94.3874 28.8696 93.4276 27.6699 93.4276H27.6459L15.8407 93.5716C14.593 93.5956 13.6332 94.5794 13.6572 95.7791Z" fill="#4C565F"/>
<circle cx="107" cy="31" r="4" fill="url(#paint1_linear_113_1893)"/>
<circle cx="11" cy="88" r="4" fill="url(#paint2_linear_113_1893)"/>
</g>
<defs>
<linearGradient id="paint0_linear_113_1893" x1="84.7561" y1="25" x2="37.4871" y2="86.966" gradientUnits="userSpaceOnUse">
<stop stop-color="#FFB461"/>
<stop offset="1" stop-color="#FF9724"/>
</linearGradient>
<linearGradient id="paint1_linear_113_1893" x1="110.22" y1="27" x2="104.756" y2="34.6098" gradientUnits="userSpaceOnUse">
<stop stop-color="#FFB461"/>
<stop offset="1" stop-color="#FF9724"/>
</linearGradient>
<linearGradient id="paint2_linear_113_1893" x1="14.2195" y1="84" x2="8.7561" y2="91.6098" gradientUnits="userSpaceOnUse">
<stop stop-color="#FFB461"/>
<stop offset="1" stop-color="#FF9724"/>
</linearGradient>
<clipPath id="clip0_113_1893">
<rect width="117.268" height="117.268" fill="white" transform="translate(0.732422 0.731995)"/>
</clipPath>
</defs>
</svg>
